HIERARCHY
ROOT Hips
{
  OFFSET 1.44925e-005 102.336 -0.101585
  CHANNELS 6 Xposition Yposition Zposition Zrotation Xrotation Yrotation
  JOINT LeftUpLeg
  {
    OFFSET 8.9458 -8.66707 0.101652
    CHANNELS 3 Zrotation Xrotation Yrotation
    JOINT LeftLeg
    {
      OFFSET 0 -44.4227 1.3727
      CHANNELS 3 Zrotation Xrotation Yrotation
      JOINT LeftFoot
      {
        OFFSET -0.253549 -42.0924 -1.46059
        CHANNELS 3 Zrotation Xrotation Yrotation
        JOINT LeftToes
        {
          OFFSET -0.04 -4.41509 8.4991
          CHANNELS 3 Zrotation Xrotation Yrotation
          End Site
          {
            OFFSET 0.08 -0.047448 9.77979
          }
        }
      }
    }
  }
  JOINT Spine
  {
    OFFSET 0 11.8905 0
    CHANNELS 3 Zrotation Xrotation Yrotation
    JOINT Spine1
    {
      OFFSET 0 25.6574 0.127663
      CHANNELS 3 Zrotation Xrotation Yrotation
      JOINT RightShoulder
      {
        OFFSET -8.99 -0.362252 -0.22
        CHANNELS 3 Zrotation Xrotation Yrotation
        JOINT RightArm
        {
          OFFSET -10.2827 -0.00338 0.322123
          CHANNELS 3 Zrotation Xrotation Yrotation
          JOINT RightForeArm
          {
            OFFSET -26.364 0.099144 -1.42434
            CHANNELS 3 Zrotation Xrotation Yrotation
            JOINT RightHand
            {
              OFFSET -22.0324 0.085362 1.02216
              CHANNELS 3 Zrotation Xrotation Yrotation
              End Site
              {
                OFFSET -13.3284 -0.6 1.50291
              }
            }
          }
        }
      }
      JOINT LeftShoulder1
      {
        OFFSET 8.99 -0.362252 -0.22
        CHANNELS 3 Zrotation Xrotation Yrotation
        JOINT LeftArm
        {
          OFFSET 10.2827 -0.00337999 0.322123
          CHANNELS 3 Zrotation Xrotation Yrotation
          JOINT LeftForeArm
          {
            OFFSET 26.2597 0.099144 -1.42434
            CHANNELS 3 Zrotation Xrotation Yrotation
            JOINT LeftHand
            {
              OFFSET 22.0902 0.085362 1.02216
              CHANNELS 3 Zrotation Xrotation Yrotation
              End Site
              {
                OFFSET 13.419 -0.6 1.50291
              }
            }
          }
        }
      }
      JOINT Head
      {
        OFFSET 0 8.73416 0.011341
        CHANNELS 3 Zrotation Xrotation Yrotation
        End Site
        {
          OFFSET -0.29 12.7742 2.51395
        }
      }
    }
  }
  JOINT RightUpLeg
  {
    OFFSET -8.9458 -8.66707 0.101652
    CHANNELS 3 Zrotation Xrotation Yrotation
    JOINT RightLeg
    {
      OFFSET 0 -44.4227 1.3727
      CHANNELS 3 Zrotation Xrotation Yrotation
      JOINT RightFoot
      {
        OFFSET 0.253549 -42.0924 -1.46059
        CHANNELS 3 Zrotation Xrotation Yrotation
        JOINT RightToes
        {
          OFFSET 0.04 -4.41509 8.4991
          CHANNELS 3 Zrotation Xrotation Yrotation
          End Site
          {
            OFFSET -0.08 -0.137448 9.77979
          }
        }
      }
    }
  }
}
MOTION
Frames:	20
Frame Time:	0.0333333
196.75 102.907 3.85105 -4.19426 -0.692602 -90.1713 -0.897765 0.0230948 2.33309 -0.412478 10.7672 20.5075 -2.97988 -10.8798 -0.0338857 -1.33288e-009 8.75229e-006 -1.47472e-008 0.706814 12.185 -0.0588977 -1.61484 -5.55739 0.259409 36.3262 1.71711 0.0477711 41.2956 -15.8073 5.21287 5.54209 36.0739 12.2353 -10.6203 9.25447 2.19826 -43.0349 3.5113 -3.57723 -28.148 -12.7695 0.0178187 -4.3675 36.8744 -14.5389 5.82328 9.61819 -0.917488 0.569402 -4.00901 -3.14116 -2.55879 -0.490627 -4.45151 -0.867657 13.1403 -7.53049 4.96257 -12.7508 0.0232744 0.0462048 0.000530889 0.662642 
196.744 102.907 3.85105 -4.18335 -0.672125 -90.1917 -0.87604 0.0225293 2.3448 -0.415812 10.756 20.508 -2.96719 -10.92 -0.0338903 -1.33288e-009 8.75229e-006 -1.47472e-008 0.680925 12.2308 -0.0415946 -1.5646 -5.63734 0.267918 36.2986 1.71711 0.0524934 41.2407 -15.7036 5.15267 5.69084 35.458 12.196 -11.0858 9.27343 1.62166 -43.0785 3.51401 -3.57884 -28.095 -12.5309 -0.00465538 -4.39135 36.6146 -14.5844 5.82328 9.61819 -0.917488 0.565268 -3.8717 -2.85456 -2.5369 -0.498155 -4.43302 -0.875161 13.1335 -7.50884 4.96003 -12.7586 0.0232751 0.0462048 0.000530889 0.662642 
196.735 102.907 3.85105 -4.14909 -0.648527 -90.2335 -0.849098 0.00133551 2.35992 -0.423219 10.743 20.5368 -2.97054 -10.9503 -0.0338938 -1.33288e-009 8.75229e-006 -1.47472e-008 0.545367 12.174 0.016065 -1.37374 -5.58191 0.291174 36.1703 1.71711 0.0595503 41.2212 -15.5467 5.12226 5.70247 35.124 12.2711 -11.084 9.29547 1.37364 -43.2881 3.53477 -3.58733 -27.8889 -12.0477 -0.0817479 -4.38175 36.0824 -14.7407 5.82328 9.61819 -0.917488 0.653537 -3.28085 -2.13189 -2.50557 -0.537138 -4.39858 -0.886655 13.1339 -7.48667 4.94908 -12.7457 0.0232739 0.0462048 0.000530889 0.662642 
196.729 102.907 3.85209 -4.11461 -0.647703 -90.2485 -0.852299 -0.0432401 2.35666 -0.422683 10.7673 20.5619 -2.96958 -10.9424 -0.0338929 -1.33288e-009 8.75229e-006 -1.47472e-008 0.393976 12.0285 0.0625256 -1.20591 -5.38565 0.304556 36.036 1.71711 0.0621758 41.2587 -15.3324 5.16514 5.60437 35.1746 12.408 -10.6682 9.28708 1.76547 -43.5117 3.55875 -3.60068 -27.6694 -11.5576 -0.175452 -4.32805 35.563 -14.9426 5.82328 9.61819 -0.917488 0.684168 -2.47037 -1.43888 -2.5026 -0.58519 -4.38168 -0.89105 13.1562 -7.4938 4.94824 -12.7356 0.023273 0.0462048 0.000530889 0.662642 
196.73 102.907 3.85768 -4.1065 -0.656338 -90.2218 -0.871503 -0.0807784 2.34609 -0.418026 10.8207 20.5406 -2.94114 -10.9295 -0.0338914 -1.33288e-009 8.75229e-006 -1.47472e-008 0.326006 11.9385 0.0645296 -1.15752 -5.23018 0.294308 35.9649 1.71658 0.0645062 41.3017 -15.1017 5.24318 5.56857 35.1347 12.4894 -10.4831 9.2679 2.13726 -43.6126 3.57196 -3.61137 -27.5777 -11.2949 -0.258228 -4.29924 35.3208 -15.0443 5.82328 9.61819 -0.917488 0.483489 -2.4145 -1.50357 -2.50638 -0.604573 -4.35713 -0.912072 13.185 -7.54674 4.99809 -12.749 0.0232742 0.0462048 0.000530889 0.662642 
196.735 102.907 3.86728 -4.12327 -0.660813 -90.1994 -0.875459 -0.0927788 2.35007 -0.42298 10.8712 20.511 -2.92422 -10.9398 -0.0338926 -1.33288e-009 8.75229e-006 -1.47472e-008 0.260013 11.9539 0.0723041 -1.06431 -5.17789 0.284636 35.8617 1.71333 0.0657843 41.3598 -15.0355 5.32486 5.52538 35.1199 12.5454 -10.3929 9.286 1.98692 -43.701 3.58701 -3.62758 -27.5428 -11.3142 -0.363125 -4.34989 35.397 -14.9762 5.82328 9.61819 -0.917488 0.120281 -3.396 -2.37256 -2.46408 -0.595996 -4.26181 -1.00102 13.2002 -7.64703 5.08443 -12.7559 0.0239565 0.0462048 0.000530889 0.662642 
196.74 102.905 3.87611 -4.14425 -0.657648 -90.2014 -0.869065 -0.10014 2.36044 -0.432337 10.9243 20.5172 -2.94133 -10.9673 -0.0338957 -1.33288e-009 8.75229e-006 -1.47472e-008 0.110121 12.0017 0.129769 -0.831905 -5.14503 0.301208 35.6785 1.70615 0.0645263 41.4496 -15.1942 5.39345 5.34507 35.4521 12.6576 -9.86533 9.35301 1.55334 -43.8723 3.61205 -3.65067 -27.4668 -11.4721 -0.514308 -4.4498 35.6169 -14.8164 5.82328 9.61819 -0.917488 -0.136735 -4.124 -3.15958 -2.38988 -0.589504 -4.12419 -1.12983 13.215 -7.75807 5.14192 -12.7396 0.0262319 0.0462048 0.000530889 0.662642 
196.744 102.901 3.88583 -4.1509 -0.654844 -90.191 -0.873023 -0.129072 2.35571 -0.428305 10.9941 20.5135 -2.93418 -10.9969 -0.0338991 -1.33288e-009 8.75229e-006 -1.47472e-008 -0.00929731 12.0127 0.19055 -0.666617 -5.08381 0.332062 35.557 1.70126 0.0564092 41.5025 -15.3723 5.4236 5.14213 35.8394 12.7871 -9.14044 9.41652 1.27516 -43.9967 3.62817 -3.66322 -27.4138 -11.5892 -0.661721 -4.52749 35.7714 -14.6941 5.82328 9.61819 -0.917488 -0.0210749 -3.89339 -2.95575 -2.35981 -0.60491 -4.06544 -1.18426 13.2586 -7.81594 5.14541 -12.7418 0.027141 0.0462048 0.000530889 0.662642 
196.747 102.895 3.90148 -4.12632 -0.648515 -90.1493 -0.884264 -0.18489 2.33637 -0.412342 11.0522 20.4705 -2.87851 -11.0178 -0.0339015 -1.33288e-009 8.75229e-006 -1.47472e-008 0.0344316 11.9904 0.196421 -0.74418 -5.05226 0.351295 35.5999 1.69955 0.0404577 41.4598 -15.3825 5.4077 5.10489 35.8098 12.8371 -8.98076 9.43189 1.18508 -43.9645 3.62211 -3.65626 -27.4617 -11.603 -0.733904 -4.55662 35.7748 -14.659 5.82328 9.61819 -0.917488 0.192925 -3.20904 -2.00198 -2.39908 -0.652493 -4.12494 -1.12201 13.3269 -7.79855 5.1322 -12.785 0.027294 0.0462048 0.000530889 0.662642 
196.749 102.892 3.92021 -4.06596 -0.64192 -90.1159 -0.89347 -0.263622 2.31442 -0.402282 11.0732 20.4621 -2.85728 -11.0187 -0.0339016 -1.33288e-009 8.75229e-006 -1.47472e-008 0.159533 11.9782 0.169245 -0.929676 -5.11358 0.357237 35.7033 1.69937 0.0338029 41.3824 -15.2651 5.37947 5.18124 35.5317 12.8229 -9.41403 9.40901 1.15893 -43.8692 3.60806 -3.64327 -27.5602 -11.5745 -0.72146 -4.56024 35.6912 -14.6722 5.82328 9.61819 -0.917488 0.18118 -2.92251 -1.30197 -2.44871 -0.735778 -4.19637 -1.04445 13.3822 -7.76492 5.12667 -12.8185 0.0270721 0.0462048 0.000530889 0.662642 
196.749 102.89 3.93476 -4.00306 -0.641937 -90.107 -0.901215 -0.344363 2.29554 -0.402339 11.0835 20.503 -2.90014 -11.0068 -0.0339003 -1.33288e-009 8.75229e-006 -1.47472e-008 0.231585 12.0031 0.15321 -1.04328 -5.23028 0.360949 35.7592 1.70019 0.0410152 41.3469 -15.0787 5.37014 5.20849 35.415 12.8388 -9.75389 9.37843 1.30877 -43.7968 3.59721 -3.63298 -27.6537 -11.579 -0.683105 -4.55801 35.6425 -14.6834 5.82328 9.61819 -0.917488 0.0732864 -3.02023 -1.11872 -2.45584 -0.817212 -4.19111 -1.04098 13.3985 -7.7901 5.12571 -12.8039 0.0268582 0.0462048 0.000530889 0.662642 
196.747 102.89 3.94607 -3.98465 -0.635307 -90.0821 -0.899714 -0.380829 2.28994 -0.402569 11.1055 20.4793 -2.90399 -11.011 -0.0339007 -1.33288e-009 8.75229e-006 -1.47472e-008 0.283933 12.0437 0.143125 -1.12405 -5.28897 0.365458 35.8065 1.70149 0.0452167 41.3287 -14.7505 5.36644 5.17614 35.3407 12.9353 -9.69606 9.34997 1.73282 -43.7096 3.5841 -3.62048 -27.7498 -11.6297 -0.677404 -4.54734 35.713 -14.6761 5.82328 9.61819 -0.917488 0.0748176 -2.91484 -0.893263 -2.43752 -0.83327 -4.15942 -1.06392 13.3864 -7.85884 5.14051 -12.7834 0.0270437 0.0462048 0.000530889 0.662642 
196.737 102.889 3.9611 -4.00877 -0.618377 -90.041 -0.88945 -0.354528 2.30355 -0.402369 11.1166 20.3916 -2.84276 -11.0366 -0.0339037 -1.33288e-009 8.75229e-006 -1.47472e-008 0.375748 12.0656 0.132399 -1.24315 -5.25311 0.377723 35.8837 1.70272 0.0392449 41.2816 -14.3285 5.34748 5.15426 35.0453 13.0819 -9.54738 9.32633 2.17355 -43.6352 3.57301 -3.60995 -27.7984 -11.6875 -0.695091 -4.52211 35.904 -14.6609 5.82328 9.61819 -0.917488 0.0971326 -2.81471 -0.631055 -2.44617 -0.786064 -4.18744 -1.03443 13.3745 -7.86716 5.16721 -12.8044 0.0280206 0.0462048 0.000530889 0.662642 
196.718 102.888 3.98094 -4.03287 -0.62733 -90.044 -0.904522 -0.309203 2.3165 -0.412937 11.1066 20.4031 -2.8383 -11.054 -0.0339057 -1.33288e-009 8.75229e-006 -1.47472e-008 0.437399 12.0873 0.146555 -1.34437 -5.23065 0.410059 35.9469 1.70335 0.0289678 41.2325 -14.1026 5.33045 5.1482 34.7809 13.1787 -9.56402 9.31741 2.28015 -43.6607 3.57509 -3.61014 -27.7324 -11.7043 -0.678146 -4.493 36.1172 -14.6515 5.82328 9.61819 -0.917488 -0.0136859 -3.34414 -0.98072 -2.50716 -0.746717 -4.26962 -0.975985 13.3787 -7.76419 5.17104 -12.8473 0.0301743 0.0462048 0.000530889 0.662642 
196.705 102.885 4.00092 -4.04936 -0.671236 -90.0951 -0.955124 -0.274926 2.31608 -0.439754 11.0978 20.4999 -2.89127 -11.0591 -0.0339063 -1.33288e-009 8.75229e-006 -1.47472e-008 0.444095 12.1333 0.182416 -1.41326 -5.26965 0.456266 35.9866 1.70284 0.0230673 41.2244 -14.2057 5.34808 5.15364 34.836 13.1481 -9.70915 9.32287 2.08027 -43.7103 3.57906 -3.61038 -27.6428 -11.6831 -0.636665 -4.49568 36.2267 -14.6311 5.82328 9.61819 -0.917488 -0.183881 -4.18782 -1.74102 -2.58686 -0.732005 -4.33603 -0.959954 13.3904 -7.65839 5.18123 -12.8921 0.0338182 0.0462048 0.000530889 0.662642 
196.693 102.874 4.0155 -4.08902 -0.701978 -90.1033 -0.985131 -0.219639 2.32887 -0.47288 11.0927 20.4629 -2.85239 -11.0933 -0.0339103 -1.33288e-009 8.75229e-006 -1.47472e-008 0.492226 12.1548 0.203949 -1.51185 -5.21589 0.497466 36.0126 1.70061 0.0179072 41.269 -14.3234 5.39103 5.1728 34.8451 13.1069 -9.89892 9.32349 1.91139 -43.6412 3.56786 -3.59879 -27.687 -11.7626 -0.678457 -4.55228 36.2667 -14.5543 5.82328 9.61819 -0.917488 -0.264118 -4.64396 -1.99541 -2.62093 -0.678952 -4.33775 -0.999367 13.4028 -7.69382 5.30619 -13.0057 0.0442829 0.0462048 0.000530889 0.662642 
196.669 102.852 4.01665 -4.15067 -0.703059 -90.0216 -0.971272 -0.148367 2.35844 -0.486243 11.1155 20.2987 -2.78731 -11.1861 -0.0351353 -1.33288e-009 8.75229e-006 -1.47472e-008 0.552025 12.1356 0.21467 -1.57133 -5.00334 0.524284 35.9572 1.69362 0.00612445 41.3649 -14.0879 5.41927 5.11536 34.3337 13.315 -9.93426 9.3152 1.99095 -43.5181 3.55475 -3.59172 -27.8471 -12.1577 -0.817324 -4.60419 36.4375 -14.4288 5.82328 9.61819 -0.917488 -0.354392 -4.93611 -1.93992 -2.60487 -0.576218 -4.28699 -1.0609 13.4551 -7.83751 5.62721 -13.3228 0.0733712 0.0462048 0.000530889 0.662642 
196.634 102.825 4.00269 -4.20369 -0.726793 -89.885 -0.985842 -0.165734 2.33979 -0.443655 11.3055 20.2252 -2.95403 -11.3489 -0.0431505 -1.33288e-009 8.75229e-006 -1.47472e-008 0.464397 12.1942 0.228422 -1.45395 -4.87438 0.515062 35.8079 1.68185 -0.00926754 41.4601 -13.5864 5.48998 4.92524 33.4926 13.7918 -9.46607 9.32996 2.19928 -43.4891 3.5582 -3.60305 -27.9929 -12.8537 -0.863988 -4.55215 36.7632 -14.3599 5.82328 9.61819 -0.917488 -0.59901 -5.48314 -2.5228 -2.62036 -0.497655 -4.25348 -1.10738 13.6297 -7.95443 6.24686 -13.9573 0.136044 0.0462048 0.000530889 0.662642 
196.598 102.781 3.99328 -4.24981 -0.767584 -89.7037 -1.06118 -0.360286 2.23919 -0.317721 11.8369 20.1825 -3.31782 -11.6294 -0.061571 -1.33288e-009 8.75229e-006 -1.47472e-008 0.307536 12.3489 0.198566 -1.23851 -4.93559 0.440164 35.7114 1.67498 -0.0154553 41.4371 -13.1895 5.85146 4.76246 32.7093 14.2176 -8.54719 9.38758 2.23705 -43.5118 3.5628 -3.60871 -28.0931 -13.492 -0.719456 -4.42783 36.9727 -14.3935 5.82328 9.61819 -0.917488 -0.816698 -5.76237 -3.24036 -2.70066 -0.487286 -4.28514 -1.10899 13.9923 -8.08608 7.33732 -14.9052 0.253694 0.0462048 0.000530889 0.662642 
196.55 102.708 4.00986 -4.31561 -0.717562 -89.5111 -1.10262 -0.704381 2.13932 -0.109722 12.7465 19.9809 -3.61725 -12.092 -0.0840721 -1.33288e-009 8.75229e-006 -1.47472e-008 0.373047 12.3525 0.115436 -1.1308 -4.80183 0.349686 35.7177 1.67344 -0.00585188 41.2581 -12.8961 6.77551 4.80416 31.6875 14.4551 -7.89274 9.44913 1.93522 -43.498 3.55022 -3.58578 -28.1807 -13.7709 -0.632905 -4.40762 36.9552 -14.3871 5.82328 9.61819 -0.917488 -0.807926 -5.37761 -2.81141 -2.72675 -0.535633 -4.2911 -1.10043 14.5491 -8.38793 8.75059 -15.9992 0.423641 0.0462048 0.000530889 0.662642 
